ply
format ascii 1.0
element vertex 64
property float x
property float y
property float z
property uchar red
property uchar green
property uchar blue
element face 18
property list uchar int vertex_indices
end_header
0.000000 0.000000 0.000000 0 0 0
1.000000 0.000000 0.000000 0 0 0
2.000000 0.000000 0.000000 0 0 0
3.000000 0.000000 0.000000 0 0 0
4.000000 0.000000 0.000000 0 0 0
5.000000 0.000000 0.000000 0 0 0
0.000000 1.000000 0.000000 0 0 0
1.000000 1.000000 0.000000 0 0 0
2.000000 1.000000 0.000000 0 0 0
3.000000 1.000000 0.000000 0 0 0
4.000000 1.000000 0.000000 0 0 0
5.000000 1.000000 0.000000 0 0 0
0.000000 2.000000 0.000000 0 0 0
1.000000 2.000000 0.000000 0 0 0
2.000000 2.000000 0.000000 0 0 0
3.000000 2.000000 0.000000 0 0 0
4.000000 2.000000 0.000000 0 0 0
5.000000 2.000000 0.000000 0 0 0
0.000000 3.000000 0.000000 0 0 0
1.000000 3.000000 0.000000 0 0 0
2.000000 3.000000 0.000000 0 0 0
3.000000 3.000000 0.000000 0 0 0
4.000000 3.000000 0.000000 0 0 0
5.000000 3.000000 0.000000 0 0 0
0.000000 4.000000 0.000000 0 0 0
1.000000 4.000000 0.000000 0 0 0
2.000000 4.000000 0.000000 0 0 0
3.000000 4.000000 0.000000 0 0 0
4.000000 4.000000 0.000000 0 0 0
5.000000 4.000000 0.000000 0 0 0
0.000000 5.000000 0.000000 0 0 0
1.000000 5.000000 0.000000 0 0 0
2.000000 5.000000 0.000000 0 0 0
3.000000 5.000000 0.000000 0 0 0
4.000000 5.000000 0.000000 0 0 0
5.000000 5.000000 0.000000 0 0 0
0.000000 6.000000 0.000000 0 0 0
1.000000 6.000000 0.000000 0 0 0
2.000000 6.000000 0.000000 0 0 0
3.000000 6.000000 0.000000 0 0 0
4.000000 6.000000 0.000000 0 0 0
5.000000 6.000000 0.000000 0 0 0
0.000000 7.000000 0.000000 0 0 0
1.000000 7.000000 0.000000 0 0 0
2.000000 7.000000 0.000000 0 0 0
3.000000 7.000000 0.000000 0 0 0
4.000000 7.000000 0.000000 0 0 0
5.000000 7.000000 0.000000 0 0 0
-5.972175 13.400082 -7.017122 0 0 0
-0.800548 22.175920 -7.501975 0 0 0
-3.309211 10.888503 -15.410790 0 0 0
10.317619 6.116075 -13.514898 0 0 0
-1.067772 4.069854 -15.495518 0 0 0
6.620597 9.313609 -15.477351 0 0 0
-1.281486 12.025146 -13.275653 0 0 0
-1.419471 1.268295 -13.998077 0 0 0
-8.980992 16.146619 -5.614216 0 0 0
-2.081528 6.188518 -17.368888 0 0 0
5.913970 4.987875 -16.800094 0 0 0
1.213582 9.388691 -17.091161 0 0 0
2.416967 2.987796 -16.038090 0 0 0
1.733580 12.449329 -13.061870 0 0 0
-10.497632 3.089890 -11.151853 0 0 0
9.372567 6.050092 -12.810968 0 0 0
4 0 1 7 6
4 12 13 19 18
4 24 25 31 30
4 36 37 43 42
4 7 8 14 13
4 19 20 26 25
4 31 32 38 37
4 2 3 9 8
4 14 15 21 20
4 26 27 33 32
4 38 39 45 44
4 9 10 16 15
4 21 22 28 27
4 33 34 40 39
4 4 5 11 10
4 16 17 23 22
4 28 29 35 34
4 40 41 47 46
